<?xml version="1.0" encoding="UTF-8"?>
<svg width="90px" height="90px" viewBox="0 0 90 90" version="1.1" xmlns="http://www.w3.org/2000/svg" xmlns:xlink="http://www.w3.org/1999/xlink">
    <!-- Generator: Sketch 51.2 (57519) - http://www.bohemiancoding.com/sketch -->
    <title>bank with uba</title>
    <desc>Created with Sketch.</desc>
    <defs>
        <polygon id="path-1" points="0 61.9685 64 61.9685 64 0.9995 0 0.9995"></polygon>
    </defs>
    <g id="bank-with-uba" stroke="none" stroke-width="1" fill="none" fill-rule="evenodd">
        <g id="Group-34" transform="translate(13.000000, 14.000000)">
            <path d="M55.8745,34.5933 C55.8745,49.7123 43.6185,61.9683 28.4995,61.9683 C13.3805,61.9683 1.1245,49.7123 1.1245,34.5933 C1.1245,19.4753 13.3805,7.2183 28.4995,7.2183 C43.6185,7.2183 55.8745,19.4753 55.8745,34.5933" id="Fill-1" fill="#F1F2F6"></path>
            <mask id="mask-2" fill="white">
                <use xlink:href="#path-1"></use>
            </mask>
            <g id="Clip-4"></g>
            <polygon id="Fill-3" fill="#BEC0CC" mask="url(#mask-2)" points="59.719 21.0625 61.656 21.0625 61.656 15.0935 59.719 15.0935"></polygon>
            <polygon id="Fill-5" fill="#BEC0CC" mask="url(#mask-2)" points="57.718 19.0315 63.718 19.0315 63.718 17.0625 57.718 17.0625"></polygon>
            <polygon id="Fill-6" fill="#BEC0CC" mask="url(#mask-2)" points="6.813 46.9375 8.75 46.9375 8.75 40.9685 6.813 40.9685"></polygon>
            <polygon id="Fill-7" fill="#BEC0CC" mask="url(#mask-2)" points="4.812 44.9065 10.812 44.9065 10.812 42.9375 4.812 42.9375"></polygon>
            <path d="M4.0835,57.9995 L53.7505,57.9995" id="Fill-8" fill="#FEFEFE" mask="url(#mask-2)"></path>
            <polygon id="Fill-9" fill="#333333" mask="url(#mask-2)" points="4.083 58.4995 53.75 58.4995 53.75 57.4995 4.083 57.4995"></polygon>
            <polygon id="Fill-10" fill="#333333" mask="url(#mask-2)" points="0 58.4995 1.875 58.4995 1.875 57.4995 0 57.4995"></polygon>
            <polygon id="Fill-11" fill="#333333" mask="url(#mask-2)" points="56 58.4995 60 58.4995 60 57.4995 56 57.4995"></polygon>
            <polygon id="Fill-12" fill="#333333" mask="url(#mask-2)" points="62 58.4995 64 58.4995 64 57.4995 62 57.4995"></polygon>
            <polygon id="Fill-13" fill="#FEFEFE" mask="url(#mask-2)" points="9.75 32.7085 20.75 32.7085 20.75 27.7085 9.75 27.7085"></polygon>
            <path d="M10.25,32.2085 L20.25,32.2085 L20.25,28.2085 L10.25,28.2085 L10.25,32.2085 Z M9.25,33.2085 L21.25,33.2085 L21.25,27.2085 L9.25,27.2085 L9.25,33.2085 Z" id="Fill-14" fill="#333333" mask="url(#mask-2)"></path>
            <polygon id="Fill-15" fill="#FEFEFE" mask="url(#mask-2)" points="6.717 57.8335 32.951 57.8335 32.951 32.7085 6.717 32.7085"></polygon>
            <path d="M7.217,57.3335 L32.45,57.3335 L32.45,33.2085 L7.217,33.2085 L7.217,57.3335 Z M6.218,58.3335 L33.451,58.3335 L33.451,32.2085 L6.218,32.2085 L6.218,58.3335 Z" id="Fill-16" fill="#333333" mask="url(#mask-2)"></path>
            <polygon id="Fill-17" fill="#FEFEFE" mask="url(#mask-2)" points="19.833 18.9995 40 18.9995 40 13.9995 19.833 13.9995"></polygon>
            <path d="M20.333,18.4995 L39.5,18.4995 L39.5,14.4995 L20.333,14.4995 L20.333,18.4995 Z M19.333,19.4995 L40.5,19.4995 L40.5,13.4995 L19.333,13.4995 L19.333,19.4995 Z" id="Fill-18" fill="#333333" mask="url(#mask-2)"></path>
            <polygon id="Fill-19" fill="#FEFEFE" mask="url(#mask-2)" points="17.167 57.9995 43.401 57.9995 43.401 18.9995 17.167 18.9995"></polygon>
            <path d="M17.667,57.4995 L42.9,57.4995 L42.9,19.4995 L17.667,19.4995 L17.667,57.4995 Z M16.668,58.4995 L43.901,58.4995 L43.901,18.4995 L16.668,18.4995 L16.668,58.4995 Z" id="Fill-20" fill="#333333" mask="url(#mask-2)"></path>
            <path d="M43.3853,27.6773 C42.7813,27.6773 42.1713,27.7273 41.5703,27.8243 C38.6063,28.3093 35.9423,30.0323 34.2613,32.5523 C32.5863,35.0633 32.0203,38.1683 32.7063,41.0733 C33.1883,43.1053 34.0763,45.0983 35.5043,47.3463 C37.4773,50.4523 39.9083,53.0583 42.4843,55.8163 L43.4113,56.8123 C43.4113,56.8123 44.7493,55.3523 45.2063,54.8573 C46.2583,53.7193 47.2523,52.6443 48.2323,51.5123 C50.5403,48.8423 52.0953,46.4713 53.1233,44.0493 C54.2033,41.5043 54.5643,39.1863 54.2273,36.9623 C53.4103,31.5823 48.8513,27.6773 43.3853,27.6773" id="Fill-21" fill="#FEFEFE" mask="url(#mask-2)"></path>
            <path d="M43.3862,27.6773 C42.7822,27.6773 42.1722,27.7273 41.5712,27.8243 C38.6072,28.3093 35.9432,30.0323 34.2622,32.5523 C32.5872,35.0633 32.0212,38.1683 32.7072,41.0733 C33.1892,43.1053 34.0772,45.0983 35.5052,47.3463 C37.4782,50.4523 39.9092,53.0583 42.4852,55.8163 L43.4122,56.8123 C43.4122,56.8123 44.7502,55.3523 45.2072,54.8573 C46.2592,53.7193 47.2532,52.6443 48.2332,51.5123 C50.5412,48.8423 52.0962,46.4713 53.1242,44.0493 C54.2042,41.5043 54.5652,39.1863 54.2282,36.9623 C53.4112,31.5823 48.8522,27.6773 43.3862,27.6773 M43.3502,57.3623 C43.0432,57.3623 42.7632,57.2353 42.5392,56.9933 L41.7452,56.1403 C39.4802,53.7073 37.1362,51.1913 35.2742,48.3773 C33.4072,45.5583 32.3652,43.2313 31.8962,40.8333 C30.7272,34.8673 34.3792,28.9433 40.2092,27.3453 C41.2572,27.0573 42.3292,26.9113 43.3972,26.9113 C49.0652,26.9113 53.9142,30.9903 54.9292,36.6083 C55.0112,37.0623 55.0402,37.5283 55.0722,38.0203 C55.0872,38.2523 55.1022,38.4843 55.1222,38.7153 C55.0942,40.9473 54.4672,43.2013 53.1462,45.7543 C51.2192,49.4813 48.4742,52.5103 45.5932,55.5413 C45.3422,55.8053 45.0962,56.0733 44.8492,56.3423 L44.3472,56.8883 C44.0662,57.1893 43.7022,57.3623 43.3502,57.3623" id="Fill-22" fill="#333333" mask="url(#mask-2)"></path>
            <path d="M43.3833,35.6909 C41.5173,35.6909 40.0553,37.1599 40.0553,39.0359 C40.0553,40.8929 41.4983,42.3559 43.3413,42.3659 C45.2673,42.3659 46.7073,40.9459 46.7153,39.0629 C46.7233,37.1499 45.2983,35.6999 43.4013,35.6909 L43.3833,35.6909 Z M43.3603,43.1589 C41.1473,43.1359 39.2733,41.2519 39.2663,39.0429 C39.2633,37.9579 39.6923,36.9279 40.4743,36.1439 C41.2593,35.3559 42.2933,34.9219 43.3873,34.9219 C44.4793,34.9219 45.5113,35.3559 46.2953,36.1429 C47.0783,36.9279 47.5083,37.9609 47.5043,39.0479 C47.4973,41.2769 45.6173,43.1589 43.3993,43.1589 L43.3603,43.1589 Z" id="Fill-23" fill="#333333" mask="url(#mask-2)"></path>
            <polygon id="Fill-24" fill="#FEFEFE" mask="url(#mask-2)" points="28 57.9585 34 57.9585 34 50.0835 28 50.0835"></polygon>
            <path d="M28.5,57.4585 L33.5,57.4585 L33.5,50.5835 L28.5,50.5835 L28.5,57.4585 Z M27.5,58.4585 L34.5,58.4585 L34.5,49.5835 L27.5,49.5835 L27.5,58.4585 Z" id="Fill-25" fill="#333333" mask="url(#mask-2)"></path>
            <polyline id="Fill-26" fill="#FEFEFE" mask="url(#mask-2)" points="22.0005 40.7085 22.0005 35.8335 27.0005 35.8335 27.0005 40.7085"></polyline>
            <polygon id="Fill-27" fill="#333333" mask="url(#mask-2)" points="27.5005 40.7085 26.5005 40.7085 26.5005 36.3335 22.5005 36.3335 22.5005 40.7085 21.5005 40.7085 21.5005 35.3335 27.5005 35.3335"></polygon>
            <polyline id="Fill-28" fill="#FEFEFE" mask="url(#mask-2)" points="22.0005 32.9585 22.0005 28.0835 27.0005 28.0835 27.0005 32.9585"></polyline>
            <polygon id="Fill-29" fill="#333333" mask="url(#mask-2)" points="27.5005 32.9585 26.5005 32.9585 26.5005 28.5835 22.5005 28.5835 22.5005 32.9585 21.5005 32.9585 21.5005 27.5835 27.5005 27.5835"></polygon>
            <path d="M5.8335,6.9165 L14.0835,6.9165 C14.0835,6.9165 16.7505,1.4995 19.8335,1.4995 C22.9165,1.4995 24.5005,4.7495 24.5005,4.7495 C24.5005,4.7495 29.0835,3.9995 29.0005,6.9165 L35.8335,6.9165" id="Stroke-30" stroke="#AFB0AB" mask="url(#mask-2)"></path>
            <path d="M45.188,12.021 L49.438,12.021 C49.438,12.021 49.563,7.521 53.626,7.521 C57.688,7.521 60.251,11.021 60.501,12.021 L63.875,12.021" id="Stroke-31" stroke="#AFB0AB" mask="url(#mask-2)"></path>
            <path d="M4.1255,15.0835 L11.0005,15.0835" id="Stroke-32" stroke="#AFB0AB" mask="url(#mask-2)"></path>
            <path d="M13.1255,15.0835 L14.7505,15.0835" id="Stroke-33" stroke="#AFB0AB" mask="url(#mask-2)"></path>
        </g>
    </g>
</svg>