<?xml version="1.0" encoding="UTF-8"?>
<svg width="90px" height="90px" viewBox="0 0 90 90" version="1.1" xmlns="http://www.w3.org/2000/svg" xmlns:xlink="http://www.w3.org/1999/xlink">
    <!-- Generator: Sketch 51.2 (57519) - http://www.bohemiancoding.com/sketch -->
    <title>help and support</title>
    <desc>Created with Sketch.</desc>
    <defs></defs>
    <g id="help-and-support" stroke="none" stroke-width="1" fill="none" fill-rule="evenodd">
        <g id="Group-2" transform="translate(12.000000, 10.000000)">
            <g id="Group-34">
                <path d="M57.75,33.875 C57.75,47.6132694 46.6132694,58.75 32.875,58.75 C19.1367306,58.75 8,47.6132694 8,33.875 C8,20.1376393 19.1367306,9 32.875,9 C46.6132694,9 57.75,20.1376393 57.75,33.875" id="Fill-1" fill="#F1F2F6"></path>
                <g id="Group" transform="translate(60.000000, 18.000000)" fill="#BEC0CC">
                    <polygon id="Fill-3" points="2.719 6.36250012 4.656 6.36250012 4.656 0.393500124 2.719 0.393500124"></polygon>
                    <polygon id="Fill-5" points="0.718 4.33150012 6.718 4.33150012 6.718 2.36250012 0.718 2.36250012"></polygon>
                </g>
                <g id="Group-Copy-2" transform="translate(13.000000, 63.000000)" fill="#BEC0CC">
                    <polygon id="Fill-3" points="2.719 6.36250012 4.656 6.36250012 4.656 0.393500124 2.719 0.393500124"></polygon>
                    <polygon id="Fill-5" points="0.718 4.33150012 6.718 4.33150012 6.718 2.36250012 0.718 2.36250012"></polygon>
                </g>
                <g id="Group-Copy" transform="translate(0.000000, 13.000000)" fill="#BEC0CC">
                    <polygon id="Fill-3" points="2.719 6.36250012 4.656 6.36250012 4.656 0.393500124 2.719 0.393500124"></polygon>
                    <polygon id="Fill-5" points="0.718 4.33150012 6.718 4.33150012 6.718 2.36250012 0.718 2.36250012"></polygon>
                </g>
                <path d="M7.0835,61.2995001 L56.7505,61.2995001" id="Fill-8" fill="#FEFEFE"></path>
                <path d="M21,5.458 L29.25,5.458 C29.25,5.458 31.917,0.041 35,0.041 C38.083,0.041 39.667,3.291 39.667,3.291 C39.667,3.291 44.25,2.541 44.167,5.458 L51,5.458" id="Stroke-30" stroke="#AFB0AB"></path>
                <path d="M7.1255,18.3835001 L14.0005,18.3835001" id="Stroke-32" stroke="#AFB0AB"></path>
                <path d="M16.1255,18.3835001 L17.7505,18.3835001" id="Stroke-33" stroke="#AFB0AB"></path>
            </g>
            <g id="Group-23" transform="translate(3.000000, 10.000000)" stroke="#333333">
                <path d="M5,25 C5,11.1925598 15.9691726,0 29.5,0 C43.0308274,0 54,11.1925598 54,25" id="Stroke-1"></path>
                <path d="M49.365425,42 L48.4345751,42 C47.5906444,42 46.9,41.2499768 46.9,40.3339533 L46.9,23.6665117 C46.9,22.7500232 47.5906444,22 48.4345751,22 L49.365425,22 C50.2093556,22 50.9,22.7500232 50.9,23.6665117 L50.9,40.3334883 C50.9,41.2499768 50.2093556,42 49.365425,42 Z" id="Stroke-3"></path>
                <path d="M54.4186887,39 L51,39 L51,25 L54.4186887,25 C57.5010744,25 60,27.4049664 60,30.3708951 L60,33.6295588 C60,36.5954874 57.5010744,39 54.4186887,39 Z" id="Stroke-5"></path>
                <path d="M10.5343111,42 L11.4652607,42 C12.3092817,42 13,41.2499768 13,40.3339533 L13,23.6660467 C13,22.7500232 12.3097099,22 11.4656889,22 L10.5343111,22 C9.69029012,22 9,22.7500232 9,23.6665117 L9,40.3334883 C9,41.2499768 9.69029012,42 10.5343111,42 Z" id="Stroke-7"></path>
                <path d="M5.58101876,39 L9,39 L9,25 L5.58101876,25 C2.49879468,25 0,27.4049664 0,30.3708951 L0,33.6295588 C0,36.5954874 2.49879468,39 5.58101876,39 Z" id="Stroke-9"></path>
                <path d="M35.9,55 L38.3921899,55 C45.2996696,55 50.9,49.0263142 50.9,41.6583358 L50.9,39" id="Stroke-19"></path>
                <path d="M36.2270945,55 L32.5729055,55 C31.6491087,55 30.9,54.14112 30.9,53.0819538 L30.9,51.9180462 C30.9,50.85888 31.6491087,50 32.5729055,50 L36.2270945,50 C37.1513369,50 37.9,50.85888 37.9,51.9180462 L37.9,53.0819538 C37.9,54.14112 37.1508913,55 36.2270945,55 Z" id="Stroke-21"></path>
            </g>
            <g id="Group-3" transform="translate(28.000000, 25.000000)" fill="#333333">
                <path d="M3.71005333,1.95564444 C5.63316444,1.98622222 6.82258667,3.08524444 6.82258667,4.82382222 C6.82258667,6.22666667 6.07903111,7.3768 4.79476444,8.88942222 C3.60249778,10.3201778 3.07627556,11.7668444 3.23378667,13.1854222 L3.24152,13.2816 C3.24738667,13.3583111 3.31227556,13.4183111 3.38907556,13.4183111 L4.17120889,13.4183111 C4.22329778,13.4183111 4.25796444,13.3936 4.27787556,13.3728889 C4.29778667,13.3521778 4.32116444,13.3166222 4.31912,13.2646222 C4.22747556,11.7088 4.72792,10.4024889 5.99289778,8.90755556 C7.28667556,7.3712 8.20303111,6.15697778 8.20303111,4.52497778 C8.20303111,2.85191111 7.15112,1.06417778 4.19894222,1.06417778 C3.20240889,1.06417778 2.11094222,1.29271111 1.27938667,1.67564444 C1.10116444,1.75768889 1.01769778,1.96951111 1.08952,2.15786667 C1.12720889,2.2568 1.20134222,2.33431111 1.29832,2.37626667 C1.39120889,2.41635556 1.49272,2.41768889 1.58445333,2.37982222 C2.24827556,2.10631111 3.00312,1.95564444 3.71005333,1.95564444 M4.17120889,14.4824 L3.38907556,14.4824 C2.75974222,14.4824 2.22880889,13.9909333 2.18045333,13.3632889 L2.17512,13.2939556 C1.98756444,11.5793778 2.59485333,9.86702222 3.98036444,8.20444444 C5.10765333,6.87671111 5.75840889,5.89982222 5.75840889,4.82382222 C5.75840889,3.35991111 4.63992,3.03475556 3.70152,3.01982222 C3.14729778,3.01982222 2.52036444,3.14524444 1.98987556,3.36373333 C1.63023111,3.51208889 1.23476444,3.50817778 0.876186667,3.35315556 C0.518497778,3.19848889 0.233786667,2.90097778 0.0950311111,2.53671111 C-0.175191111,1.82702222 0.14952,1.02426667 0.83432,0.708977778 C1.81289778,0.2584 3.03929778,0 4.19894222,0 C7.70000889,0 9.26720889,2.27271111 9.26720889,4.52497778 C9.26720889,6.51333333 8.20054222,7.93804444 6.80605333,9.59404444 C5.71876444,10.8791111 5.30632,11.9272889 5.38196444,13.2129778 C5.39529778,13.5560889 5.27520889,13.8712 5.04472,14.1108444 C4.81405333,14.3504889 4.50383111,14.4824 4.17120889,14.4824 M3.79147556,16.5740444 C3.13494222,16.5740444 2.69387556,17.0479111 2.69387556,17.7531556 C2.69387556,18.4314667 3.13405333,18.9051556 3.76436444,18.9051556 C4.43112,18.9051556 4.86196444,18.4529778 4.86196444,17.7531556 C4.86196444,17.0368889 4.44178667,16.5740444 3.79147556,16.5740444 M3.76436444,19.9693333 C2.54738667,19.9693333 1.62969778,19.0166222 1.62969778,17.7531556 C1.62969778,16.4532444 2.53885333,15.5098667 3.79147556,15.5098667 C5.02836444,15.5098667 5.92614222,16.4532444 5.92614222,17.7531556 C5.92614222,19.0372444 5.01698667,19.9693333 3.76436444,19.9693333" id="Fill-1"></path>
            </g>
        </g>
    </g>
</svg>