<?xml version="1.0" encoding="UTF-8"?>
<svg width="90px" height="90px" viewBox="0 0 90 90" version="1.1" xmlns="http://www.w3.org/2000/svg" xmlns:xlink="http://www.w3.org/1999/xlink">
    <!-- Generator: Sketch 51.2 (57519) - http://www.bohemiancoding.com/sketch -->
    <title>Cards</title>
    <desc>Created with Sketch.</desc>
    <defs>
        <polygon id="path-1" points="0 0.277777778 60.833 0.277777778 60.833 61.1108889 0 61.1108889"></polygon>
    </defs>
    <g id="Cards" stroke="none" stroke-width="1" fill="none" fill-rule="evenodd">
        <g id="Group-33" transform="translate(10.000000, 14.000000)">
            <g id="Group-3" transform="translate(0.000000, 0.833333)">
                <mask id="mask-2" fill="white">
                    <use xlink:href="#path-1"></use>
                </mask>
                <g id="Clip-2"></g>
                <path d="M60.833,30.6942222 C60.833,47.4931111 47.2152222,61.1108889 30.4163333,61.1108889 C13.6185556,61.1108889 -0.000333333333,47.4931111 -0.000333333333,30.6942222 C-0.000333333333,13.8953333 13.6185556,0.277555556 30.4163333,0.277555556 C47.2152222,0.277555556 60.833,13.8953333 60.833,30.6942222" id="Fill-1" fill="#F1F2F6" mask="url(#mask-2)"></path>
            </g>
            <path d="M50.7635556,31.7358889 L11.8746667,31.7358889 C9.43133333,31.7358889 7.43022222,29.7358889 7.43022222,27.2914444 L7.43022222,7.29144444 C7.43022222,4.847 9.43133333,2.847 11.8746667,2.847 L50.7635556,2.847 C53.208,2.847 55.208,4.847 55.208,7.29144444 L55.208,27.2914444 C55.208,29.7358889 53.208,31.7358889 50.7635556,31.7358889" id="Fill-4" fill="#FEFEFE"></path>
            <path d="M11.8746667,3.40255556 C9.73022222,3.40255556 7.98577778,5.147 7.98577778,7.29144444 L7.98577778,27.2914444 C7.98577778,29.4358889 9.73022222,31.1803333 11.8746667,31.1803333 L50.7635556,31.1803333 C52.908,31.1803333 54.6524444,29.4358889 54.6524444,27.2914444 L54.6524444,7.29144444 C54.6524444,5.147 52.908,3.40255556 50.7635556,3.40255556 L11.8746667,3.40255556 Z M50.7635556,32.2914444 L11.8746667,32.2914444 C9.118,32.2914444 6.87466667,30.0481111 6.87466667,27.2914444 L6.87466667,7.29144444 C6.87466667,4.53477778 9.118,2.29144444 11.8746667,2.29144444 L50.7635556,2.29144444 C53.5202222,2.29144444 55.7635556,4.53477778 55.7635556,7.29144444 L55.7635556,27.2914444 C55.7635556,30.0481111 53.5202222,32.2914444 50.7635556,32.2914444 Z" id="Fill-6" fill="#333333"></path>
            <path d="M60.9024444,56.4581111 L22.0135556,56.4581111 C19.5702222,56.4581111 17.5691111,54.4581111 17.5691111,52.0136667 L17.5691111,28.6803333 C17.5691111,26.2358889 19.5702222,24.2358889 22.0135556,24.2358889 L60.9024444,24.2358889 C63.3468889,24.2358889 65.3468889,26.2358889 65.3468889,28.6803333 L65.3468889,52.0136667 C65.3468889,54.4581111 63.3468889,56.4581111 60.9024444,56.4581111" id="Fill-8" fill="#FEFEFE"></path>
            <path d="M22.0135556,24.7914444 C19.8691111,24.7914444 18.1246667,26.5358889 18.1246667,28.6803333 L18.1246667,52.0136667 C18.1246667,54.1581111 19.8691111,55.9025556 22.0135556,55.9025556 L60.9024444,55.9025556 C63.0468889,55.9025556 64.7913333,54.1581111 64.7913333,52.0136667 L64.7913333,28.6803333 C64.7913333,26.5358889 63.0468889,24.7914444 60.9024444,24.7914444 L22.0135556,24.7914444 Z M60.9024444,57.0136667 L22.0135556,57.0136667 C19.2568889,57.0136667 17.0135556,54.7703333 17.0135556,52.0136667 L17.0135556,28.6803333 C17.0135556,25.9236667 19.2568889,23.6803333 22.0135556,23.6803333 L60.9024444,23.6803333 C63.6591111,23.6803333 65.9024444,25.9236667 65.9024444,28.6803333 L65.9024444,52.0136667 C65.9024444,54.7703333 63.6591111,57.0136667 60.9024444,57.0136667 Z" id="Fill-10" fill="#333333"></path>
            <polygon id="Fill-12" fill="#FEFEFE" points="7.43 14.2355556 55.2077778 14.2355556 55.2077778 6.87444444 7.43 6.87444444"></polygon>
            <path d="M7.98555556,13.68 L54.6522222,13.68 L54.6522222,7.43 L7.98555556,7.43 L7.98555556,13.68 Z M6.87444444,14.7911111 L55.7633333,14.7911111 L55.7633333,6.31888889 L6.87444444,6.31888889 L6.87444444,14.7911111 Z" id="Fill-14" fill="#333333"></path>
            <path d="M10.9024444,18.2636667 L20.7635556,18.2636667" id="Fill-15" fill="#FEFEFE"></path>
            <polygon id="Fill-16" fill="#333333" points="10.9022222 18.8188889 20.7633333 18.8188889 20.7633333 17.7077778 10.9022222 17.7077778"></polygon>
            <path d="M22.708,18.2636667 L32.4302222,18.2636667" id="Fill-17" fill="#FEFEFE"></path>
            <polygon id="Fill-18" fill="#333333" points="22.7077778 18.8188889 32.43 18.8188889 32.43 17.7077778 22.7077778 17.7077778"></polygon>
            <path d="M59.0968889,35.0692222 C59.0968889,37.3703333 57.2313333,39.2358889 54.9302222,39.2358889 C52.6302222,39.2358889 50.7635556,37.3703333 50.7635556,35.0692222 C50.7635556,32.7681111 52.6302222,30.9025556 54.9302222,30.9025556 C57.2313333,30.9025556 59.0968889,32.7681111 59.0968889,35.0692222" id="Fill-19" fill="#FEFEFE"></path>
            <path d="M54.9302222,31.4581111 C52.9391111,31.4581111 51.3191111,33.0781111 51.3191111,35.0692222 C51.3191111,37.0603333 52.9391111,38.6803333 54.9302222,38.6803333 C56.9213333,38.6803333 58.5413333,37.0603333 58.5413333,35.0692222 C58.5413333,33.0781111 56.9213333,31.4581111 54.9302222,31.4581111 M54.9302222,39.7914444 C52.3268889,39.7914444 50.208,37.6736667 50.208,35.0692222 C50.208,32.4647778 52.3268889,30.347 54.9302222,30.347 C57.5346667,30.347 59.6524444,32.4647778 59.6524444,35.0692222 C59.6524444,37.6736667 57.5346667,39.7914444 54.9302222,39.7914444" id="Fill-20" fill="#333333"></path>
            <path d="M23.958,48.4025556 L30.6246667,48.4025556" id="Fill-21" fill="#FEFEFE"></path>
            <polygon id="Fill-22" fill="#333333" points="23.9577778 48.9577778 30.6244444 48.9577778 30.6244444 47.8466667 23.9577778 47.8466667"></polygon>
            <path d="M33.2635556,48.4025556 L39.9302222,48.4025556" id="Fill-23" fill="#FEFEFE"></path>
            <polygon id="Fill-24" fill="#333333" points="33.2633333 48.9577778 39.93 48.9577778 39.93 47.8466667 33.2633333 47.8466667"></polygon>
            <path d="M43.1246667,48.4025556 L49.7913333,48.4025556" id="Fill-25" fill="#FEFEFE"></path>
            <polygon id="Fill-26" fill="#333333" points="43.1244444 48.9577778 49.7911111 48.9577778 49.7911111 47.8466667 43.1244444 47.8466667"></polygon>
            <path d="M52.4302222,48.4025556 L59.0968889,48.4025556" id="Fill-27" fill="#FEFEFE"></path>
            <polygon id="Fill-28" fill="#333333" points="52.43 48.9577778 59.0966667 48.9577778 59.0966667 47.8466667 52.43 47.8466667"></polygon>
            <polygon id="Fill-29" fill="#BEC0CC" points="65.1044444 16.4933333 67.2566667 16.4933333 67.2566667 9.86111111 65.1044444 9.86111111"></polygon>
            <polygon id="Fill-30" fill="#BEC0CC" points="62.8811111 14.2366667 69.5477778 14.2366667 69.5477778 12.0488889 62.8811111 12.0488889"></polygon>
            <polygon id="Fill-31" fill="#BEC0CC" points="6.32 45.2433333 8.47222222 45.2433333 8.47222222 38.6111111 6.32 38.6111111"></polygon>
            <polygon id="Fill-32" fill="#BEC0CC" points="4.09666667 42.9866667 10.7633333 42.9866667 10.7633333 40.7988889 4.09666667 40.7988889"></polygon>
        </g>
    </g>
</svg>