<?xml version="1.0" encoding="UTF-8"?>
<svg width="90px" height="90px" viewBox="0 0 90 90" version="1.1" xmlns="http://www.w3.org/2000/svg" xmlns:xlink="http://www.w3.org/1999/xlink">
    <!-- Generator: Sketch 51.2 (57519) - http://www.bohemiancoding.com/sketch -->
    <title>Open An Account</title>
    <desc>Created with Sketch.</desc>
    <defs>
        <polygon id="path-1" points="0 65 71 65 71 0 0 0"></polygon>
    </defs>
    <g id="Open-An-Account" stroke="none" stroke-width="1" fill="none" fill-rule="evenodd">
        <g id="Group-28" transform="translate(9.000000, 12.500000)">
            <path d="M63,34 C63,50.0164749 50.0154155,63 34,63 C17.9835251,63 5,50.0164749 5,34 C5,17.9835251 17.9835251,5 34,5 C50.0154155,5 63,17.9835251 63,34" id="Fill-1" fill="#F1F2F6"></path>
            <mask id="mask-2" fill="white">
                <use xlink:href="#path-1"></use>
            </mask>
            <g id="Clip-4"></g>
            <polygon id="Fill-3" fill="#BEC0CC" mask="url(#mask-2)" points="67 19 69 19 69 13 67 13"></polygon>
            <polygon id="Fill-5" fill="#BEC0CC" mask="url(#mask-2)" points="65 18 71 18 71 16 65 16"></polygon>
            <polygon id="Fill-6" fill="#BEC0CC" mask="url(#mask-2)" points="11 47 13 47 13 41 11 41"></polygon>
            <polygon id="Fill-7" fill="#BEC0CC" mask="url(#mask-2)" points="9 45 15 45 15 43 9 43"></polygon>
            <path d="M34,7 L26.1621333,7 L26.1781333,6.43930185 C26.1930667,5.90587502 26.0384,5.50116877 25.7066667,5.20445691 C24.7882667,4.38195418 22.7178667,4.50958392 21.9968,4.62957768 L21.6074667,4.69393798 L21.4325333,4.33068412 C21.4165333,4.29795855 19.8421333,1.09085242 16.9333333,1.09085242 C14.5088,1.09085242 12.0288,5.13682406 11.2778667,6.69565217 L11.1328,7 L2,7 L2,5.90914758 L10.4746667,5.90914758 C11.1338667,4.64703132 13.7728,0 16.9333333,0 C19.9093333,0 21.6554667,2.55041297 22.2037333,3.50272713 C23.0762667,3.41218638 25.2181333,3.31728222 26.4074667,4.38195418 C26.8565333,4.78338788 27.1274667,5.29608851 27.2149333,5.90914758 L34,5.90914758 L34,7 Z" id="Fill-8" fill="#AFB0AB" mask="url(#mask-2)"></path>
            <path d="M63,12 L58.9693905,12 L58.8687858,11.5865455 C58.6814898,10.824 56.2038315,7.09090909 52.0298068,7.09090909 C48.246428,7.09090909 48.0869588,11.2909091 48.0826778,11.4698182 L48.0687644,12 L43,12 L43,10.9090909 L47.053085,10.9090909 C47.2799807,8.96072727 48.5172045,6 52.0298068,6 C56.2059721,6 59.0389576,9.33818182 59.7560336,10.9090909 L63,10.9090909 L63,12 Z" id="Fill-9" fill="#AFB0AB" mask="url(#mask-2)"></path>
            <polygon id="Fill-10" fill="#AFB0AB" mask="url(#mask-2)" points="0 15 7 15 7 14 0 14"></polygon>
            <polygon id="Fill-11" fill="#AFB0AB" mask="url(#mask-2)" points="10 15 12 15 12 14 10 14"></polygon>
            <path d="M5.8346076,27.9458018 L15.4002126,27.9458018 L15.4002126,25.9259581 L23.262077,20.0393154 L4.062845,20.0393154 L4.062845,25.1342552 L5.8346076,25.1342552 L5.8346076,27.9458018 Z M52.5997874,27.9458018 L62.1653924,27.9458018 L62.1653924,25.1342552 L63.937155,25.1342552 L63.937155,20.0393154 L44.737923,20.0393154 L52.5997874,25.9259581 L52.5997874,27.9458018 Z M63.2282374,29 L51.5369424,29 L51.5369424,26.4509488 L34,13.3198561 L16.4630576,26.4509488 L16.4630576,29 L4.77176261,29 L4.77176261,26.1884534 L3,26.1884534 L3,18.9851172 L24.434395,18.9851172 L24.434395,19.1611683 L34,12 L43.3296534,18.9851172 L65,18.9851172 L65,26.1884534 L63.2282374,26.1884534 L63.2282374,29 Z" id="Fill-12" fill="#333333" mask="url(#mask-2)"></path>
            <polygon id="Fill-13" fill="#333333" mask="url(#mask-2)" points="63 35 5 35 5 32 6.0561585 32 6.0561585 33.8385598 61.9438415 33.8385598 61.9438415 32 63 32"></polygon>
            <path d="M34,21.0860122 C31.8420938,21.0860122 30.0860122,22.8420938 30.0860122,25 C30.0860122,27.1589922 31.8420938,28.9139878 34,28.9139878 C36.1579062,28.9139878 37.9139878,27.1589922 37.9139878,25 C37.9139878,22.8420938 36.1579062,21.0860122 34,21.0860122 M34,30 C31.2426151,30 29,27.7573849 29,25 C29,22.2426151 31.2426151,20 34,20 C36.7573849,20 39,22.2426151 39,25 C39,27.7573849 36.7573849,30 34,30" id="Fill-14" fill="#333333" mask="url(#mask-2)"></path>
            <polygon id="Fill-15" fill="#333333" mask="url(#mask-2)" points="11 64 57 64 57 63 11 63"></polygon>
            <polygon id="Fill-16" fill="#333333" mask="url(#mask-2)" points="14 60 54 60 54 59 14 59"></polygon>
            <path d="M27,56 L25.9677419,56 L25.9677419,41.177305 C25.9677419,39.4686525 24.636129,38.0780142 23,38.0780142 C21.363871,38.0780142 20.0322581,39.4686525 20.0322581,41.177305 L20.0322581,56 L19,56 L19,41.177305 C19,38.8735887 20.7940645,37 23,37 C25.2059355,37 27,38.8735887 27,41.177305 L27,56 Z" id="Fill-17" fill="#333333" mask="url(#mask-2)"></path>
            <path d="M38,56 L36.9677419,56 L36.9677419,41.177305 C36.9677419,39.4686525 35.636129,38.0780142 34,38.0780142 C32.363871,38.0780142 31.0322581,39.4686525 31.0322581,41.177305 L31.0322581,56 L30,56 L30,41.177305 C30,38.8735887 31.7940645,37 34,37 C36.2059355,37 38,38.8735887 38,41.177305 L38,56 Z" id="Fill-18" fill="#333333" mask="url(#mask-2)"></path>
            <path d="M48,56 L46.9677419,56 L46.9677419,41.177305 C46.9677419,39.4686525 45.636129,38.0780142 44,38.0780142 C42.363871,38.0780142 41.0322581,39.4686525 41.0322581,41.177305 L41.0322581,56 L40,56 L40,41.177305 C40,38.8735887 41.7940645,37 44,37 C46.2059355,37 48,38.8735887 48,41.177305 L48,56 Z" id="Fill-19" fill="#333333" mask="url(#mask-2)"></path>
            <polygon id="Fill-20" fill="#333333" mask="url(#mask-2)" points="8.00930806 65 7 65 7 38 16 38 16 56.5063774 14.9906919 56.5063774 14.9906919 39.0728335 8.00930806 39.0728335"></polygon>
            <polygon id="Fill-21" fill="#333333" mask="url(#mask-2)" points="7 45 10 45 10 44 7 44"></polygon>
            <polygon id="Fill-22" fill="#333333" mask="url(#mask-2)" points="7 52 10 52 10 51 7 51"></polygon>
            <polygon id="Fill-23" fill="#333333" mask="url(#mask-2)" points="7 58 10 58 10 57 7 57"></polygon>
            <polygon id="Fill-24" fill="#333333" mask="url(#mask-2)" points="60 65 58.9906919 65 58.9906919 39.0728335 52.0093081 39.0728335 52.0093081 56.5063774 51 56.5063774 51 38 60 38"></polygon>
            <polygon id="Fill-25" fill="#333333" mask="url(#mask-2)" points="57 45 60 45 60 44 57 44"></polygon>
            <polygon id="Fill-26" fill="#333333" mask="url(#mask-2)" points="57 52 60 52 60 51 57 51"></polygon>
            <polygon id="Fill-27" fill="#333333" mask="url(#mask-2)" points="57 58 60 58 60 57 57 57"></polygon>
        </g>
    </g>
</svg>